<?xml version="1.0" encoding="utf-8"?>
<!-- Generator: Adobe Illustrator 18.1.0, SVG Export Plug-In . SVG Version: 6.00 Build 0)  -->
<svg version="1.1" id="Layer_1" xmlns="http://www.w3.org/2000/svg" xmlns:xlink="http://www.w3.org/1999/xlink" x="0px" y="0px"
	 viewBox="0 0 1000 1000" enable-background="new 0 0 1000 1000" xml:space="preserve">
<g>
	<path fill="#1BAEEB" d="M438.6,580.4c-7.6,3.8-22.8,7.6-42.3,7.6c-45.1,0-79.1-28.5-79.1-81c0-50.1,34-84.1,83.6-84.1
		c19.9,0,32.5,4.3,38,7.1l-5,16.9c-7.8-3.8-19-6.6-32.3-6.6c-37.5,0-62.4,24-62.4,66c0,39.2,22.6,64.3,61.5,64.3
		c12.6,0,25.4-2.6,33.7-6.6L438.6,580.4z"/>
	<path fill="#1BAEEB" d="M451.9,417.1h20.9v168.6h-20.9V417.1z"/>
	<path fill="#1BAEEB" d="M559.7,585.6l-1.7-14.5h-0.7c-6.4,9-18.8,17.1-35.1,17.1c-23.3,0-35.1-16.4-35.1-33
		c0-27.8,24.7-43,69.1-42.7v-2.4c0-9.5-2.6-26.6-26.1-26.6c-10.7,0-21.8,3.3-29.9,8.5l-4.7-13.8c9.5-6.2,23.3-10.2,37.8-10.2
		c35.1,0,43.7,24,43.7,47v43c0,10,0.5,19.7,1.9,27.5H559.7z M556.6,527c-22.8-0.5-48.7,3.6-48.7,25.9c0,13.5,9,19.9,19.7,19.9
		c15,0,24.5-9.5,27.8-19.2c0.7-2.1,1.2-4.5,1.2-6.6V527z"/>
	<path fill="#1BAEEB" d="M605,470.7l15.2,58.4c3.3,12.8,6.4,24.7,8.5,36.6h0.7c2.6-11.6,6.4-24,10.2-36.3l18.8-58.6H676l17.8,57.5
		c4.3,13.8,7.6,25.9,10.2,37.5h0.7c1.9-11.6,5-23.7,8.8-37.3l16.4-57.7h20.7l-37,114.9h-19L677,530.8c-4-12.8-7.4-24.2-10.2-37.8
		h-0.5c-2.8,13.8-6.4,25.6-10.4,38l-18.5,54.6h-19l-34.7-114.9H605z"/>
	<path fill="#1E7CA3" d="M781,425.6v160h-20.7v-160H781z"/>
	<path fill="#1E7CA3" d="M942,504c0,55.1-33.5,84.3-74.3,84.3c-42.3,0-71.9-32.8-71.9-81.2c0-50.8,31.6-84.1,74.3-84.1
		C913.7,423,942,456.5,942,504z M817.8,506.6c0,34.2,18.5,64.8,51,64.8c32.8,0,51.3-30.2,51.3-66.5c0-31.8-16.6-65.1-51-65.1
		C834.9,439.8,817.8,471.4,817.8,506.6z"/>
</g>
<g>
	<path fill="#1BAEEB" d="M266,495.3c-0.1-10-8.2-18.1-18.3-18.1c-10.1,0-18.3,8.2-18.3,18.3s8.2,18.3,18.3,18.3c3.8,0,8.3-2,8.3-2
		s24.4,7.3,17.2,34c0,0-4.4,21.3-32.6,21.3H103.9c0,0-24.9-0.4-28.9-32.1v-0.8c6-3,10.2-9.2,10.2-16.4S81,504.3,75,501.3V500
		c0,0-0.6-30.3,29.4-31.1c0,0,11.8,0,15.4,4.4c0,0,8.4,3.5,13.7-0.9c0,0,5.1-1.8,3.4-13.2c0,0-3.4-14.8,16.5-24.5
		c3.1,2.5,7.1,4.1,11.5,4.1c10.1,0,18.3-8.2,18.3-18.3s-8.2-18.3-18.3-18.3c-7.8,0-14.4,4.8-17,11.7c-4,1.3-22.6,8.8-31.2,36.2
		c0,0-58.8-11-59.2,52.5c-4.9,3.3-8.1,8.8-8.1,15.2c0,6.3,3.2,11.8,8.1,15.1c0.3,10.7,4.1,52.2,48.6,54.2h145.8
		c0,0,39.1-4.1,43.5-47.2C295.3,539.8,295.2,507.3,266,495.3z M247.8,505.6c-5.6,0-10.2-4.6-10.2-10.2c0-5.6,4.6-10.2,10.2-10.2
		c5.6,0,10.2,4.6,10.2,10.2C258,501,253.4,505.6,247.8,505.6z M164.7,410.3c5.6,0,10.2,4.6,10.2,10.2s-4.6,10.2-10.2,10.2
		c-5.6,0-10.2-4.6-10.2-10.2S159.1,410.3,164.7,410.3z M77.7,517.7c0,5.6-4.6,10.2-10.2,10.2c-5.6,0-10.2-4.6-10.2-10.2
		s4.6-10.2,10.2-10.2C73.1,507.6,77.7,512.1,77.7,517.7z"/>
</g>
<g>
	<path fill="#1BAEEB" d="M257.4,437c-4.1,3.5-9.9,10.1-13,13.6c-1.6,1.8-3.3,3.6-4.9,5.4l-1.6,1.8c-1,1.2-2.1,2.4-3.2,3.6l-2.5,3
		c-2.2,2.6-4.5,5.2-6.7,7.9l-1.1,1.3c-2.4,2.9-4.9,5.8-7.3,8.7l-2.2,0.9c-2,0.8-4,1.7-6.1,2.6l-9.9,4.3l-0.6,0.6
		c-2,2-3.9,4.1-5.9,6.2l-2.6,2.7l-2.5,2.6c-1.4,1.5-2.7,2.9-4.1,4.4l-5.9,6.3c-2.2,2.3-4.3,4.3-6.4,6.7c-3,3.3-5,10.4-7.9,12.4h1.9
		c3.2-2,6.4-5.7,9.6-8.8c2.2-2.2,4.4-4.1,6.6-6.3l6.2-6c2-2,4.1-4,6.1-6l3.2-3.2c1.8-1.9,3.7-3.7,5.5-5.6l5.6-2.3l3.4-1.4
		c1.8-0.8,3.6-1.5,5.3-2.3l4.2-1.8l0.7-0.9c2.1-2.6,4.3-5.2,6.4-7.9l2-2.5l0.5-0.7c2.2-2.7,4.3-5.4,6.5-8.1l2.4-3
		c1-1.2,1.9-2.4,2.9-3.6l1.7-2.2c1.4-1.8,3.3-3.6,4.7-5.4C251.2,450.2,253.3,440.8,257.4,437L257.4,437z"/>
	<path fill="#1BAEEB" d="M168.9,495.4l6.1-6.1c2-2,4-4,6-6l3.3-3.3c1.8-1.8,3.6-3.7,5.4-5.5l5.6-2.3l3.4-1.4
		c1.8-0.8,3.6-1.5,5.4-2.3l4.1-1.8l0.7-0.9c2.2-2.6,4.3-5.3,6.4-7.9l2-2.5l0.5-0.7c2.2-2.7,4.4-5.4,6.5-8.1l2.3-3
		c1-1.2,2-2.5,2.9-3.7l1.5-1.9c1.5-1.9,2.9-3.7,4.3-5.6c2.9-3.8,5.8-12.2,8.6-16l-3.1,2.1c-3.2,3.5-6.3,7.1-9.4,10.6
		c-1.6,1.8-3.1,3.6-4.7,5.4l-1.5,1.8c-1,1.2-2.1,2.4-3.1,3.6l-2.6,3c-2.2,2.6-4.4,5.2-6.6,7.8l-1.3,1.6c-2.4,2.8-4.7,5.6-7.1,8.4
		l-2.2,0.9c-2,0.8-4,1.7-6.1,2.6l-9.9,4.3l-0.6,0.6c-2,2.1-3.9,4.1-5.9,6.2l-2.5,2.7l-2.6,2.7c-1.4,1.5-2.8,3-4.2,4.5l-5.7,6.2
		c-2.2,2.4-4.1,4.7-6.3,7.1c-3,3.3-6.7,9.5-8.8,12.8l0,0c2-3,9.1-6.1,12.3-9.2C164.6,499.8,166.7,497.6,168.9,495.4z"/>
	<path fill="#1BAEEB" d="M155.9,477.1l5.5-6.7c1.8-2.2,3.6-4.5,5.5-6.8l2.9-3.6c1.6-2.1,3.3-4.1,4.9-6.2l5.5-3.2l3.4-1.9
		c1.7-1,3.4-2,5.1-3l4.3-2.5l0.6-0.9c1.9-2.8,3.7-5.6,5.5-8.5l2-3l0.2-0.4c1.8-2.8,3.7-5.7,5.5-8.5l2.1-3.4c0.8-1.3,1.7-2.6,2.5-4
		l1.3-2c1.3-2,2.2-4,3.4-6c2.5-4,5-11.6,7-15.7l0,0c-2,3.8-8.6,9.1-11.3,12.9c-1.4,1.9-2.6,3.9-3.9,5.8l-1.3,2
		c-0.9,1.3-1.7,2.6-2.6,3.8l-2.1,3.1c-2,2.9-3.9,5.7-5.9,8.6l-1.1,1.7c-2.1,3.1-4.1,6.1-6.2,9.2l-2,1.2c-2,1.2-4.1,2.4-6.1,3.6
		l-9.8,5.8l-0.5,0.7c-1.8,2.3-3.5,4.6-5.3,6.9l-2.2,2.9l-2.6,3.4c-1.1,1.5-2.2,3-3.4,4.4l-5.2,6.9c-1.9,2.5-3.8,5.1-5.7,7.6
		c-2.7,3.6-5.9,9.6-7.9,13.3l0,0c4.1-3.4,9.1-6.7,11.9-10.2C151.8,482,153.9,479.6,155.9,477.1z"/>
</g>
</svg>
